<?xml version="1.0" encoding="UTF-8"?> <svg xmlns="http://www.w3.org/2000/svg" xmlns:xlink="http://www.w3.org/1999/xlink" contentScriptType="text/ecmascript" width="1440pt" zoomAndPan="magnify" contentStyleType="text/css" viewBox="0 0 1440 809.999993" height="809.999993pt" preserveAspectRatio="xMidYMid meet"> <defs> <g></g> </defs> <g xml:id="surface1" id="surface1"> <rect x="0" width="1440" y="0" height="809.999993" style="fill:rgb(100%,100%,100%);fill-opacity:1;stroke:none;"></rect> <rect x="0" width="1440" y="0" height="809.999993" style="fill:rgb(100%,100%,100%);fill-opacity:1;stroke:none;"></rect> <rect x="0" width="1440" y="0" height="809.999993" style="fill:rgb(100%,100%,100%);fill-opacity:1;stroke:none;"></rect> <g style="fill:rgb(0%,0%,0%);fill-opacity:1;"> <g transform="translate(445.95729, 458.789202)"> <path style="stroke:none;" d="M 7.90625 -100.03125 L 38.828125 -100.03125 L 38.828125 -80.796875 L 39.453125 -80.796875 C 41.429688 -87.210938 45 -92.304688 50.15625 -96.078125 C 55.3125 -99.859375 61.273438 -101.75 68.046875 -101.75 C 75.472656 -101.75 81.613281 -99.921875 86.46875 -96.265625 C 91.320312 -92.546875 94.46875 -87.300781 95.90625 -80.53125 L 96.53125 -80.53125 C 98.507812 -87 102.285156 -92.15625 107.859375 -96 C 113.492188 -99.832031 120.023438 -101.75 127.453125 -101.75 C 137.222656 -101.75 145.132812 -98.632812 151.1875 -92.40625 C 157.238281 -86.113281 160.265625 -77.898438 160.265625 -67.765625 L 160.265625 0 L 128.4375 0 L 128.4375 -59.6875 C 128.4375 -70.46875 123.644531 -75.859375 114.0625 -75.859375 C 109.5625 -75.859375 105.992188 -74.359375 103.359375 -71.359375 C 100.660156 -68.367188 99.3125 -64.359375 99.3125 -59.328125 L 99.3125 0 L 68.9375 0 L 68.9375 -60.125 C 68.9375 -65.164062 67.679688 -69.0625 65.171875 -71.8125 C 62.710938 -74.507812 59.175781 -75.859375 54.5625 -75.859375 C 50.125 -75.859375 46.523438 -74.332031 43.765625 -71.28125 C 41.078125 -68.21875 39.734375 -64.171875 39.734375 -59.140625 L 39.734375 0 L 7.90625 0 Z M 7.90625 -100.03125 "></path> </g> </g> <g style="fill:rgb(0%,0%,0%);fill-opacity:1;"> <g transform="translate(613.849179, 458.789202)"> <path style="stroke:none;" d="M 70.640625 -101.390625 C 83.285156 -101.390625 93.113281 -96.894531 100.125 -87.90625 C 107.195312 -78.914062 110.734375 -66.300781 110.734375 -50.0625 C 110.734375 -33.820312 107.226562 -21.207031 100.21875 -12.21875 C 93.269531 -3.175781 83.53125 1.34375 71 1.34375 C 55.96875 1.34375 45.753906 -4.796875 40.359375 -17.078125 L 39.734375 -17.078125 L 39.734375 30.46875 L 7.90625 30.46875 L 7.90625 -100.03125 L 39.546875 -100.03125 L 39.546875 -82.515625 L 40.171875 -82.515625 C 42.691406 -88.441406 46.617188 -93.054688 51.953125 -96.359375 C 57.285156 -99.710938 63.515625 -101.390625 70.640625 -101.390625 Z M 58.875 -23.734375 C 64.75 -23.734375 69.421875 -26.097656 72.890625 -30.828125 C 76.367188 -35.617188 78.109375 -42.03125 78.109375 -50.0625 C 78.109375 -58.03125 76.367188 -64.382812 72.890625 -69.125 C 69.359375 -73.914062 64.6875 -76.3125 58.875 -76.3125 C 53.0625 -76.3125 48.382812 -73.914062 44.84375 -69.125 C 41.375 -64.320312 39.640625 -57.9375 39.640625 -49.96875 C 39.640625 -41.945312 41.375 -35.566406 44.84375 -30.828125 C 48.320312 -26.097656 53 -23.734375 58.875 -23.734375 Z M 58.875 -23.734375 "></path> </g> </g> <g style="fill:rgb(0%,0%,0%);fill-opacity:1;"> <g transform="translate(729.52201, 458.789202)"> <path style="stroke:none;" d="M 48.984375 -20.765625 C 54.253906 -20.765625 58.6875 -22.171875 62.28125 -24.984375 C 66.0625 -27.859375 67.953125 -31.546875 67.953125 -36.046875 L 67.953125 -42.96875 L 49.53125 -41.703125 C 40.175781 -41.046875 35.5 -37.507812 35.5 -31.09375 C 35.5 -27.914062 36.726562 -25.398438 39.1875 -23.546875 C 41.582031 -21.691406 44.847656 -20.765625 48.984375 -20.765625 Z M 37.75 1.34375 C 28.21875 1.34375 20.25 -1.46875 13.84375 -7.09375 C 7.25 -12.789062 3.953125 -20.070312 3.953125 -28.9375 C 3.953125 -47.695312 17.460938 -57.914062 44.484375 -59.59375 L 67.953125 -61.03125 L 67.953125 -66.78125 C 67.953125 -70.789062 66.601562 -73.90625 63.90625 -76.125 C 61.269531 -78.28125 57.675781 -79.359375 53.125 -79.359375 C 48.863281 -79.359375 45.328125 -78.34375 42.515625 -76.3125 C 39.816406 -74.332031 38.226562 -71.753906 37.75 -68.578125 L 9.078125 -68.578125 C 9.492188 -78.703125 13.804688 -86.820312 22.015625 -92.9375 C 30.285156 -99.113281 41.160156 -102.203125 54.640625 -102.203125 C 67.953125 -102.203125 78.679688 -99.113281 86.828125 -92.9375 C 94.972656 -86.707031 99.046875 -78.554688 99.046875 -68.484375 L 99.046875 0 L 68.125 0 L 68.125 -14.375 L 67.5 -14.375 C 64.863281 -9.46875 60.757812 -5.601562 55.1875 -2.78125 C 49.789062 -0.03125 43.976562 1.34375 37.75 1.34375 Z M 37.75 1.34375 "></path> </g> </g> <g style="fill:rgb(0%,0%,0%);fill-opacity:1;"> <g transform="translate(836.566593, 458.789202)"> <path style="stroke:none;" d="M 73.078125 -64.359375 C 70.921875 -73.398438 65.40625 -77.921875 56.53125 -77.921875 C 50.664062 -77.921875 46.082031 -75.492188 42.78125 -70.640625 C 39.488281 -65.734375 37.84375 -58.875 37.84375 -50.0625 C 37.84375 -41.132812 39.488281 -34.242188 42.78125 -29.390625 C 46.082031 -24.597656 50.664062 -22.203125 56.53125 -22.203125 C 65.644531 -22.203125 71.21875 -26.695312 73.25 -35.6875 L 102.46875 -35.6875 C 101.382812 -23.875 96.738281 -14.613281 88.53125 -7.90625 C 80.320312 -1.195312 69.535156 2.15625 56.171875 2.15625 C 40.648438 2.15625 28.398438 -2.488281 19.421875 -11.78125 C 10.429688 -21.0625 5.9375 -33.820312 5.9375 -50.0625 C 5.9375 -66.125 10.429688 -78.828125 19.421875 -88.171875 C 28.398438 -97.523438 40.59375 -102.203125 56 -102.203125 C 69.125 -102.203125 79.878906 -98.722656 88.265625 -91.765625 C 96.535156 -84.992188 101.269531 -75.859375 102.46875 -64.359375 Z M 73.078125 -64.359375 "></path> </g> </g> <g style="fill:rgb(0%,0%,0%);fill-opacity:1;"> <g transform="translate(944.869451, 458.789202)"> <path style="stroke:none;" d="M 47.734375 -122.15625 L 47.734375 -100.03125 L 65.796875 -100.03125 L 65.796875 -76.484375 L 47.734375 -76.484375 L 47.734375 -33.796875 C 47.734375 -26.785156 51.597656 -23.28125 59.328125 -23.28125 C 61.535156 -23.28125 63.691406 -23.429688 65.796875 -23.734375 L 65.796875 -1.078125 C 62.140625 -0.234375 57.460938 0.1875 51.765625 0.1875 C 38.941406 0.1875 29.742188 -1.972656 24.171875 -6.296875 C 18.660156 -10.546875 15.90625 -17.582031 15.90625 -27.40625 L 15.90625 -76.484375 L 2.515625 -76.484375 L 2.515625 -100.03125 L 15.90625 -100.03125 L 15.90625 -122.15625 Z M 47.734375 -122.15625 "></path> </g> </g> <path style=" stroke:none;fill-rule:nonzero;fill:rgb(100%,8.628845%,8.628845%);fill-opacity:1;" d="M 423.011719 308.8125 C 422.378906 308.8125 421.75 308.839844 421.121094 308.902344 C 420.496094 308.964844 419.871094 309.058594 419.253906 309.179688 C 418.632812 309.304688 418.023438 309.457031 417.417969 309.640625 C 416.816406 309.824219 416.222656 310.035156 415.640625 310.277344 C 415.058594 310.519531 414.488281 310.789062 413.929688 311.085938 C 413.375 311.382812 412.835938 311.707031 412.308594 312.054688 C 411.785156 312.40625 411.28125 312.78125 410.792969 313.183594 C 410.304688 313.582031 409.839844 314.003906 409.390625 314.453125 C 408.945312 314.898438 408.523438 315.363281 408.121094 315.851562 C 407.722656 316.339844 407.347656 316.84375 406.996094 317.371094 C 406.648438 317.894531 406.324219 318.433594 406.023438 318.992188 C 405.726562 319.546875 405.457031 320.117188 405.21875 320.699219 C 404.976562 321.28125 404.761719 321.875 404.582031 322.480469 C 404.398438 323.082031 404.246094 323.695312 404.121094 324.3125 C 404 324.929688 403.90625 325.554688 403.84375 326.183594 C 403.78125 326.808594 403.75 327.4375 403.75 328.070312 C 403.75 328.699219 403.78125 329.328125 403.84375 329.957031 C 403.90625 330.585938 404 331.207031 404.121094 331.828125 C 404.246094 332.445312 404.398438 333.054688 404.582031 333.660156 C 404.761719 334.261719 404.976562 334.855469 405.21875 335.4375 C 405.457031 336.023438 405.726562 336.589844 406.023438 337.148438 C 406.324219 337.703125 406.648438 338.246094 406.996094 338.769531 C 407.347656 339.292969 407.722656 339.800781 408.121094 340.285156 C 408.523438 340.773438 408.945312 341.242188 409.390625 341.6875 C 409.839844 342.132812 410.304688 342.554688 410.792969 342.957031 C 411.28125 343.355469 411.785156 343.730469 412.308594 344.082031 C 412.835938 344.433594 413.375 344.757812 413.929688 345.054688 C 414.488281 345.351562 415.058594 345.621094 415.640625 345.863281 C 416.222656 346.101562 416.816406 346.316406 417.417969 346.5 C 418.023438 346.683594 418.632812 346.835938 419.253906 346.957031 C 419.871094 347.082031 420.496094 347.171875 421.121094 347.234375 C 421.75 347.296875 422.378906 347.328125 423.011719 347.328125 C 423.640625 347.328125 424.269531 347.296875 424.898438 347.234375 C 425.523438 347.171875 426.148438 347.082031 426.765625 346.957031 C 427.386719 346.835938 427.996094 346.683594 428.601562 346.5 C 429.203125 346.316406 429.796875 346.101562 430.378906 345.863281 C 430.960938 345.621094 431.53125 345.351562 432.089844 345.054688 C 432.644531 344.757812 433.183594 344.433594 433.710938 344.082031 C 434.234375 343.730469 434.738281 343.355469 435.226562 342.957031 C 435.714844 342.554688 436.183594 342.132812 436.628906 341.6875 C 437.074219 341.242188 437.496094 340.773438 437.898438 340.285156 C 438.296875 339.800781 438.671875 339.292969 439.023438 338.769531 C 439.375 338.246094 439.695312 337.703125 439.996094 337.148438 C 440.292969 336.589844 440.5625 336.023438 440.800781 335.4375 C 441.042969 334.855469 441.257812 334.261719 441.4375 333.660156 C 441.621094 333.054688 441.777344 332.445312 441.898438 331.828125 C 442.023438 331.207031 442.113281 330.585938 442.175781 329.957031 C 442.238281 329.328125 442.269531 328.699219 442.269531 328.070312 C 442.269531 327.4375 442.238281 326.808594 442.175781 326.183594 C 442.113281 325.554688 442.023438 324.929688 441.898438 324.3125 C 441.777344 323.695312 441.621094 323.082031 441.4375 322.480469 C 441.257812 321.875 441.042969 321.28125 440.800781 320.699219 C 440.5625 320.117188 440.292969 319.546875 439.996094 318.992188 C 439.695312 318.433594 439.375 317.894531 439.023438 317.371094 C 438.671875 316.84375 438.296875 316.339844 437.898438 315.851562 C 437.496094 315.363281 437.074219 314.898438 436.628906 314.453125 C 436.183594 314.003906 435.714844 313.582031 435.226562 313.183594 C 434.738281 312.78125 434.234375 312.40625 433.710938 312.054688 C 433.183594 311.707031 432.644531 311.382812 432.089844 311.085938 C 431.53125 310.789062 430.960938 310.519531 430.378906 310.277344 C 429.796875 310.035156 429.203125 309.824219 428.601562 309.640625 C 427.996094 309.457031 427.386719 309.304688 426.765625 309.179688 C 426.148438 309.058594 425.523438 308.964844 424.898438 308.902344 C 424.269531 308.839844 423.640625 308.8125 423.011719 308.8125 Z M 423.011719 308.8125 "></path> <path style=" stroke:none;fill-rule:nonzero;fill:rgb(0%,0%,0%);fill-opacity:1;" d="M 407.507812 358.757812 L 438.453125 358.757812 L 438.453125 459.183594 L 407.507812 459.183594 Z M 407.507812 358.757812 "></path> <g style="fill:rgb(0%,0%,0%);fill-opacity:1;"> <g transform="translate(862.785526, 516.373242)"> <path style="stroke:none;" d=""></path> </g> </g> </g> </svg> 